# xmcd
#
# Track frame offsets: 
#        150
#        13825
#        25859
#        39134
#        49534
#        59374
#        72308
#        83984
#        98570
#        109885
#        123342
#        137960
#        148162
#        158640
#        171707
#        181656
#        196964
#
# Disc length: 2770 seconds
#
# Revision: 0
# Processed by: cddbd v1.5.2PL0 Copyright (c) Steve Scherf et al.
# Submitted via: ExactAudioCopy v0.95a3
#
DISCID=e90ad011
DTITLE=Ann Peebles - Complete Ann Peebles on Hi Records Vol 1
DYEAR=2003
DGENRE=Soul
TTITLE0=Give Me Some Credit
TTITLE1=Crazy About You Baby
TTITLE2=Make Me Yours
TTITLE3=My Man
TTITLE4=Solid Foundation
TTITLE5=Chain of Fools
TTITLE6=It's Your Thing
TTITLE7=Walk Away
TTITLE8=Rescue Me
TTITLE9=Won't You Try Me
TTITLE10=Steal Away
TTITLE11=Respect
TTITLE12=I Can't Let You Go
TTITLE13=Part Time Love
TTITLE14=I'll Get Along
TTITLE15=I Still Love You
TTITLE16=Generation Gap Between Us
EXTD=
EXTT0=
EXTT1=
EXTT2=
EXTT3=
EXTT4=
EXTT5=
EXTT6=
EXTT7=
EXTT8=
EXTT9=
EXTT10=
EXTT11=
EXTT12=
EXTT13=
EXTT14=
EXTT15=
EXTT16=
PLAYORDER=
